PathFileType	4	(X/Y/Z)	TRC_missing_Z7
DataRate	CameraRate	NumFrames	NumMarkers	Units	OrigDataRate	OrigDataStartFrame	OrigNumFrames
100.00	100.00	       4	45	mm	100.00	653	       2609
Frame#	Time	T10			C7			CLAV			RACR1			LACR1			RPSI			LPSI			RASI			LASI			LTH2			LTH3			LTH1			RTH2			RTH3			RTH1			RLFC			RTB1			RTB3			RTB2			LLFC			LTB1			LTB3			LTB2			LLMAL			LCAL			RLMAL			RCAL			RMT5			RMT1			LMT5			LMT1			*31			*32			*33			*34			*35			*36			*37			*38			*39			*40			*41			*42			*43			*44			
		X1	Y1	Z1	X2	Y2	Z2	X3	Y3	Z3	X4	Y4	Z4	X5	Y5	Z5	X6	Y6	Z6	X7	Y7	X8	Y8	Z8	X9	Y9	Z9	X10	Y10	Z10	X11	Y11	Z11	X12	Y12	Z12	X13	Y13	Z13	X14	Y14	Z14	X15	Y15	Z15	X16	Y16	Z16	X17	Y17	Z17	X18	Y18	Z18	X19	Y19	Z19	X20	Y20	Z20	X21	Y21	Z21	X22	Y22	Z22	X23	Y23	Z23	X24	Y24	Z24	X25	Y25	Z25	X26	Y26	Z26	X27	Y27	Z27	X28	Y28	Z28	X29	Y29	Z29	X30	Y30	Z30	X31	Y31	Z31	X32	Y32	Z32	X33	Y33	Z33	X34	Y34	Z34	X35	Y35	Z35	X36	Y36	Z36	X37	Y37	Z37	X38	Y38	Z38	X39	Y39	Z39	X40	Y40	Z40	X41	Y41	Z41	X42	Y42	Z42	X43	Y43	Z43	X44	Y44	Z44	X45	Y45	Z45	
653	6.520000	669.715820	1224.118774	-555.575745	674.623657	1477.726196	-431.820679	702.069092	1321.740234	-336.587799	525.094971	1426.813965	-385.305359	855.554810	1425.205566	-448.480042	624.561401	1016.531494	-627.949036	712.320435	1011.914307	-630.591187	550.605957	966.557861	-394.760620	804.324402	968.754272	-401.636292	864.090942	742.749756	-367.817322	884.176636	780.581848	-417.793304	834.682556	865.184326	-394.257416	562.458618	681.950317	-437.574005	514.266846	753.314819	-450.753448	573.468506	796.239258	-395.737396	560.898315	486.726715	-565.515015	614.146973	372.955719	-560.725159	593.377869	301.588379	-603.220459	623.335022	252.349777	-612.391113	845.162537	522.056213	-327.859680	807.990356	409.189636	-292.977844	830.516968	349.728607	-331.923248	794.143372	296.449615	-329.493042	806.305603	113.929733	-427.699707	749.179688	75.048698	-476.878906	619.347229	82.300941	-716.635620	659.804993	50.830132	-786.981079	620.178467	43.403858	-612.989075	700.169617	50.032478	-587.389771	841.983459	58.797680	-324.063416	781.824524	68.683411	-283.409973	921.377747	1054.657959	410.000305	924.368591	1058.745972	475.781555	920.798828	1058.430908	348.592560	0.000000	0.000000	0.000000	0.000000	0.000000	0.000000	0.000000	0.000000	0.000000	922.596924	1058.655396	390.647949	-18.035488	12.039576	-1119.560913	1151.578369	12.619137	-1033.592896	-0.732989	11.982449	1.029065	1167.684692	12.498165	85.358421	0.000000	0.000000	0.000000	0.000000	0.000000	0.000000	0.000000	0.000000	0.000000	
654	6.530000	669.966248	1223.262085	-555.858398	674.712646	1476.842896	-432.015076	702.473572	1320.798584	-336.961090	525.334106	1425.872559	-385.176392	855.580566	1424.365234	-449.431305	625.985168	1015.915344	-628.540466	713.740662	1011.150574	-630.798523	550.801941	965.488342	-395.620056	804.600525	968.012024	-401.476013	862.913696	741.281372	-365.807007	884.144226	779.697754	-416.731598	834.786682	864.633728	-393.540833	562.629150	680.950439	-441.366272	514.799316	752.476685	-453.806244	573.563354	794.730591	-397.919250	561.097168	486.877472	-571.576782	614.131226	372.961456	-567.514954	593.413086	301.914612	-610.531128	623.340881	252.640762	-619.881775	843.323242	521.849915	-325.439087	805.998962	409.694214	-287.468140	829.095886	348.856720	-324.680969	792.802612	295.527893	-320.289764	806.109741	109.377846	-412.595886	749.526917	68.684662	-460.887360	619.614258	83.152763	-724.985901	660.260742	52.215069	-795.439209	620.115417	43.507126	-621.525085	700.001160	50.047901	-595.707214	841.172485	57.949242	-306.634705	780.760498	69.066124	-266.689301	921.369324	1054.681152	408.988373	924.368591	1058.745972	475.781555	920.877747	1058.580933	348.991150	0.000000	0.000000	0.000000	0.000000	0.000000	0.000000	0.000000	0.000000	0.000000	922.502136	1057.885132	394.273773	-18.035696	12.038862	-1119.560669	1151.578491	12.619129	-1033.593018	-0.733159	11.982532	1.028695	1167.684814	12.498473	85.358391	0.000000	0.000000	0.000000	0.000000	0.000000	0.000000	0.000000	0.000000	0.000000	
655	6.540000	670.272156	1222.393433	-556.052185	674.843567	1475.961060	-432.139954	702.919189	1319.857666	-337.249481	525.608215	1424.909912	-384.967804	855.648071	1423.527344	-450.277771	627.434753	1015.281677	-629.005310	715.187988	1010.380859	-630.889160	551.065796	964.410522	-396.358826	804.940979	967.258728	-401.218262	861.769775	739.442444	-363.808350	884.134827	778.650330	-415.818542	834.943787	863.985718	-392.772278	562.842102	679.964844	-445.028809	515.378052	751.641968	-456.733917	573.707642	793.223633	-399.986755	561.343384	487.059479	-577.476074	614.147522	372.993500	-574.182983	593.467529	302.297150	-617.745300	623.361328	252.982819	-627.297607	841.503845	521.456604	-323.326782	803.944031	410.010406	-282.477142	827.609436	347.915100	-318.035522	791.357727	294.576385	-311.830261	805.786987	105.159637	-398.550812	749.778015	62.846508	-446.054718	619.871033	84.090363	-733.324768	660.701050	53.708145	-803.905762	620.045288	43.608555	-630.046875	699.829407	50.060741	-604.013306	840.078003	57.183754	-290.447418	779.381042	69.445595	-251.261719	921.362854	1054.699219	408.287354	0.000000	0.000000	0.000000	920.934143	1058.689209	349.272034	856.915833	732.344360	-352.226044	0.000000	0.000000	0.000000	0.000000	0.000000	0.000000	922.409607	1057.151978	397.712891	-18.035898	12.038165	-1119.560425	1151.578491	12.619122	-1033.593262	-0.733330	11.982615	1.028324	1167.684937	12.498781	85.358353	0.000000	0.000000	0.000000	0.000000	0.000000	0.000000	0.000000	0.000000	0.000000	
656	6.550000	670.632874	1221.520386	-556.153442	675.017944	1475.088379	-432.193176	703.406372	1318.926880	-337.449341	525.918457	1423.935913	-384.680420	855.759949	1422.699463	-451.015045	628.906433	1014.635437	-629.337463	716.659058	1009.613159	-630.858459	551.396179	963.330933	-396.970490	805.343506	966.504028	-400.858612	860.697998	737.362793	-361.904572	884.145508	777.472534	-415.025909	835.151123	863.254822	-391.943390	563.099182	678.993469	-448.540131	516.002136	750.810852	-459.518860	573.903503	791.724304	-401.925720	561.634338	487.268463	-583.187439	614.191284	373.048065	-580.709351	593.535583	302.736237	-624.844849	623.390015	253.376740	-634.624390	839.717285	520.889160	-321.501801	801.835815	410.135468	-278.020935	826.064758	346.907806	-312.013580	789.813171	293.593964	-304.177734	805.337769	101.288399	-385.703918	749.931824	57.553444	-432.547424	620.106873	85.121979	-741.648560	661.113342	55.321777	-812.378418	619.964722	43.705120	-638.555237	699.650574	50.069710	-612.312378	838.714600	56.479038	-275.650146	777.701538	69.781532	-237.264450	921.358765	1054.710938	407.877563	0.000000	0.000000	0.000000	920.968140	1058.755005	349.439270	0.000000	0.000000	0.000000	0.000000	0.000000	0.000000	0.000000	0.000000	0.000000	922.321106	1056.473755	400.882294	-18.036100	12.037485	-1119.560303	1151.578613	12.619116	-1033.593384	-0.733500	11.982698	1.027954	1167.685059	12.499090	85.358322	0.000000	0.000000	0.000000	0.000000	0.000000	0.000000	0.000000	0.000000	0.000000	
